<?xml version="1.0" encoding="utf-8"?>
<svg viewBox="0 0 100 125" x="0px" y="0px" xmlns="http://www.w3.org/2000/svg" xmlns:bx="https://boxy-svg.com">
  <defs>
    <bx:grid x="1.747" y="1.865" width="96.444" height="96.281"/>
    <linearGradient gradientUnits="userSpaceOnUse" x1="49.809" y1="8.506" x2="49.809" y2="92.19" id="gradient-0" gradientTransform="matrix(0.999987, -0.005092, 0.003622, 0.706129, -0.333207, 27.345601)">
      <stop offset="0" style="stop-color: rgba(255, 109, 30, 1)"/>
      <stop offset="1" style="stop-color: rgba(183, 64, 0, 1)"/>
    </linearGradient>
  </defs>
  <title>0000 Expand Business - CircleFill</title>
  <path d="M34.5,49.1377H44a.6001.6001,0,0,0,0-1.2002H34.5a.6001.6001,0,0,0,0,1.2002Z" style="fill: rgb(229, 93, 19); stroke: rgb(230, 93, 20);"/>
  <path d="M 45.381 60.243 C 45.843 60.241 46.13 59.74 45.897 59.341 C 45.79 59.157 45.594 59.043 45.381 59.043 L 34.5 59.016 C 34.038 59.018 33.751 59.519 33.984 59.918 C 34.091 60.102 34.287 60.215 34.5 60.216 L 45.381 60.243 Z" style="fill: rgb(229, 93, 19); stroke: rgb(230, 93, 20);"/>
  <path d="M 75.835 42.926 C 75.019 42.147 73.734 42.147 72.918 42.926 C 71.795 44.049 72.309 45.967 73.843 46.378 C 75.377 46.79 76.781 45.386 76.37 43.851 C 76.277 43.501 76.092 43.182 75.836 42.926 Z M 74.987 44.996 C 74.517 45.467 73.714 45.252 73.542 44.609 C 73.523 44.536 73.513 44.461 73.513 44.386 C 73.512 43.721 74.231 43.305 74.807 43.637 C 74.873 43.675 74.933 43.721 74.986 43.775 L 74.987 43.775 C 75.325 44.112 75.325 44.659 74.987 44.996 Z" style="fill: rgb(222, 88, 16);"/>
  <path d="M34.5,38.15771H57.75a.6001.6001,0,0,0,0-1.20019H34.5a.6001.6001,0,0,0,0,1.20019Z" style="fill: rgb(229, 93, 19); stroke: rgb(230, 93, 20);"/>
  <path d="M 91.651 50.348 C 91.651 73.457 72.918 92.19 49.809 92.19 C 26.7 92.19 7.967 73.457 7.967 50.348 C 7.967 27.239 26.7 8.506 49.809 8.506 C 72.918 8.506 91.651 27.239 91.651 50.348 Z M 34.045 68.279 C 34.044 67.948 34.315 67.678 34.646 67.677 L 67.407 67.559 L 67.386 62.37 L 64.926 64.726 C 64.119 65.535 62.811 65.54 62.006 64.737 L 59.85 62.587 L 57.689 64.193 C 57.335 64.459 56.905 64.602 56.463 64.604 C 56.36 64.604 56.257 64.596 56.155 64.582 C 55.611 64.505 55.124 64.214 54.8 63.773 L 47.19 53.73 C 46.514 52.815 46.708 51.522 47.624 50.839 L 63.521 39.026 C 64.465 38.329 65.678 38.11 66.801 38.433 L 67.4 38.834 L 67.452 29.997 C 67.451 28.406 66.164 27.121 64.573 27.124 L 31.497 27.243 C 29.905 27.251 28.615 28.545 28.611 30.137 L 28.563 70.017 C 28.565 71.579 29.81 72.85 31.371 72.883 C 32.854 72.839 34.038 71.624 34.042 70.14 Z M 53.904 53.715 L 66.751 40.813 L 66.946 40.594 C 66.771 40.407 66.6 40.297 66.36 40.298 C 65.814 40.3 65.283 40.476 64.844 40.8 L 49.924 51.974 C 49.539 52.26 49.458 52.802 49.741 53.185 L 56.084 61.745 C 56.368 62.129 56.909 62.208 57.294 61.922 L 58.337 61.061 L 53.901 56.636 C 53.095 55.833 53.096 54.524 53.904 53.715 Z M 70.736 69.688 L 36.091 69.849 L 36.115 70.208 C 36.114 71.231 35.715 72.215 35.001 72.952 L 68 72.758 C 69.513 72.751 70.74 71.521 70.744 70.008 Z M 78.226 47.134 L 77.524 42.038 C 77.411 41.238 77.391 41.199 76.59 41.089 L 71.493 40.398 C 71.379 40.383 71.264 40.375 71.149 40.376 C 70.475 40.378 69.826 40.647 69.347 41.125 L 56.052 54.499 C 55.715 54.838 55.714 55.385 56.051 55.722 L 62.986 62.658 C 63.328 62.984 63.868 62.982 64.21 62.654 L 77.506 49.28 C 78.067 48.715 78.333 47.921 78.226 47.134 Z" style="fill: url(#gradient-0);"/>
</svg>