<svg xmlns="http://www.w3.org/2000/svg" viewBox="0 0 100 125" x="0px" y="0px"><title>0000 Expand Business - CircleFill</title><path d="M50,2.6001A47.40015,47.40015,0,1,0,97.3999,50,47.45379,47.45379,0,0,0,50,2.6001ZM34.06641,70.083a2.73923,2.73923,0,0,1-2.668,2.73254,2.88171,2.88171,0,0,1-2.81147-2.87512V30.05957a2.88564,2.88564,0,0,1,2.88282-2.88232H64.5459a2.88542,2.88542,0,0,1,2.88183,2.88232v9.2569l-.02832-.00836a3.76105,3.76105,0,0,0-3.28027.581L48.23633,51.645a2.06758,2.06758,0,0,0-.43067,2.88867l6.35254,8.5835a2.05237,2.05237,0,0,0,1.35547.814,2.12715,2.12715,0,0,0,.3086.02295,2.05411,2.05411,0,0,0,1.22558-.40576l2.16059-1.59918L61.46,64.20068a2.0641,2.0641,0,0,0,2.91992,0l3.04785-3.04785v6.46924H34.666a.59984.59984,0,0,0-.59961.6001ZM53.90918,56.6499l4.44073,4.44074L56.333,62.5835a.86349.86349,0,0,1-1.21-.18018l-6.35254-8.5835a.86532.86532,0,0,1,.18066-1.21L64.833,40.854a2.55325,2.55325,0,0,1,1.51562-.49707,2.50643,2.50643,0,0,1,.71094.10254l.092.0271L53.90918,53.729a2.06411,2.06411,0,0,0,0,2.9209ZM70.76758,70.083a2.74321,2.74321,0,0,1-2.74024,2.73974H34.15527A3.92583,3.92583,0,0,0,35.26563,70.083V68.82227H70.76758Zm6.7373-20.70362L63.53223,63.35205a.88669.88669,0,0,1-1.22461,0l-7.55078-7.55078a.867.867,0,0,1,0-1.22363L68.72949,40.605a2.55529,2.55529,0,0,1,1.79981-.74316,2.46583,2.46583,0,0,1,.34375.02392l5.09863.709a1.81524,1.81524,0,0,1,1.542,1.54248l.709,5.09863A2.54968,2.54968,0,0,1,77.50488,49.37939Z"/><path d="M34.5,49.1377H44a.6001.6001,0,0,0,0-1.2002H34.5a.6001.6001,0,0,0,0,1.2002Z"/><path d="M46.125,60.21582a.6001.6001,0,0,0,0-1.20019H34.5a.6001.6001,0,0,0,0,1.20019Z"/><path d="M75.54,42.56836a2.112,2.112,0,0,0-2.917,0,2.06348,2.06348,0,1,0,2.918,0Zm-.84766,2.07031a.86377.86377,0,0,1-1.47461-.61084.86317.86317,0,0,1,1.47364-.61084h.001a.86407.86407,0,0,1,0,1.22168Z"/><path d="M34.5,38.15771H57.75a.6001.6001,0,0,0,0-1.20019H34.5a.6001.6001,0,0,0,0,1.20019Z"/><text x="0" y="115" fill="#000000" font-size="5px" font-weight="bold" font-family="'Helvetica Neue', Helvetica, Arial-Unicode, Arial, Sans-serif">Created by Mark Jayvee Pabilonia</text><text x="0" y="120" fill="#000000" font-size="5px" font-weight="bold" font-family="'Helvetica Neue', Helvetica, Arial-Unicode, Arial, Sans-serif">from the Noun Project</text></svg>